<svg xmlns="http://www.w3.org/2000/svg" xmlns:xlink="http://www.w3.org/1999/xlink" viewBox="0 0 1476.5 903.41"><defs><style>.a{fill:none;}.b{clip-path:url(#a);}.c{clip-path:url(#b);}.d{fill:#f15a24;fill-rule:evenodd;}.e{fill:#043175;}.f{clip-path:url(#c);}.g{fill:url(#d);}</style><clipPath id="a" transform="translate(86.6 351.7)"><rect class="a" width="1389.89" height="234.69"/></clipPath><clipPath id="b" transform="translate(86.6 351.7)"><rect class="a" width="1389.9" height="234.69"/></clipPath><clipPath id="c" transform="translate(86.6 351.7)"><path class="a" d="M651.79,200h91.89L697.73,79.51ZM107,57.53l24.17,63H82.81ZM84.89,0,0,200H52.29L68,159h77.92l15.73,41H214L129.06,0Zm184.5,41h24A103.21,103.21,0,0,1,317.6,43.8a59,59,0,0,1,20.93,9.48,47.49,47.49,0,0,1,14.7,17.81c3.68,7.45,5.51,17.6,5.51,28.91,0,11.12-1.83,19.69-5.51,27.22a48.32,48.32,0,0,1-14.7,18.1,59.13,59.13,0,0,1-21.21,9.76,104,104,0,0,1-25,3h-22.9ZM221.58,0V200h74.58a145.94,145.94,0,0,0,40.67-5.79,107.23,107.23,0,0,0,36-18.08,91.37,91.37,0,0,0,25.71-31.36q9.75-19.07,9.74-45.34,0-28.23-9.88-47.45t-26-30.65A105,105,0,0,0,335.7,4.94,179,179,0,0,0,293.9,0ZM499.39,57.53l24.16,63H475.22ZM477.3,0,392.41,200h52.28l15.73-41h77.93l15.73,41h52.28L521.47,0Zm106,0,45.94,122.11L675.14,0ZM720.33,0l45.95,122.11L812.22,0Z"/></clipPath><linearGradient id="d" x1="-310.14" y1="-50.19" x2="-309.14" y2="-50.19" gradientTransform="matrix(0, 479.32, 479.32, 0, 24463.26, 148636.47)" gradientUnits="userSpaceOnUse"><stop offset="0" stop-color="#9fc3ed"/><stop offset="1" stop-color="#043175"/><stop offset="1" stop-color="#043175"/></linearGradient></defs><title>Asset 1</title><g class="b"><g class="c"><path class="d" d="M1335.57,215.29a44,44,0,0,0,21.73-10.89c-12.56-1-22.41-10.54-22.41-23.47,0-15.64,11.55-26.52,26.83-26.52,17,0,28.17,15,28.17,31,0,24-20.9,41.08-42.29,49.33-3.86-6.28-12-19.4-12-19.4" transform="translate(86.6 351.7)"/><path class="e" d="M1106.77,200l-43.5-79.51h-16.12V200h-46.83V0H1076a130.37,130.37,0,0,1,27.9,3,72.25,72.25,0,0,1,24.4,10,52.51,52.51,0,0,1,17.25,18.65Q1152,43.22,1152,60.45q0,20.34-10.93,34.18t-30.29,19.78L1162.68,200Zm-1.15-138.56c0-4.72-1-8.55-3-11.49a20.6,20.6,0,0,0-7.7-6.81,33.37,33.37,0,0,0-10.56-3.26A77.78,77.78,0,0,0,1073.1,39h-25.95V85.85h23.1a77.39,77.39,0,0,0,12.26-1,39.16,39.16,0,0,0,11.41-3.55,21.65,21.65,0,0,0,8.41-7.38q3.29-4.82,3.29-12.49" transform="translate(86.6 351.7)"/><polygon class="e" points="1262.53 551.7 1262.53 351.7 1397.17 351.7 1397.17 392.68 1309.36 392.68 1309.36 431.21 1392.29 431.21 1392.29 470.24 1309.36 470.24 1309.36 510.73 1402.04 510.73 1402.04 551.7 1262.53 551.7"/><path class="e" d="M783,200,867.84,0H912L996.9,200H944.61l-15.72-41H851l-15.73,41Zm82.81-79.51h48.33l-24.17-63Z" transform="translate(86.6 351.7)"/></g><g class="f"><rect class="g" x="116.45" y="-301.7" width="579.32" height="803.41" transform="translate(203.06 753.41) rotate(-60)"/></g></g></svg>